<mxfile host="app.diagrams.net" modified="2022-06-16T11:23:58.917Z" agent="5.0 (X11; Linux x86_64) AppleWebKit/537.36 (KHTML, like Gecko) Chrome/102.0.5005.99 Safari/537.36" etag="wLjw3mqWwhrZvzl7yILF" version="20.0.1" type="github">
  <diagram id="bWRVeczF5u0aCZECB4ML" name="Page-1">
    <mxGraphModel dx="1314" dy="768" grid="1" gridSize="10" guides="1" tooltips="1" connect="1" arrows="1" fold="1" page="1" pageScale="1" pageWidth="850" pageHeight="1100" math="0" shadow="0">
      <root>
        <mxCell id="0" />
        <mxCell id="1" parent="0" />
        <mxCell id="ZTz_-8pqN7oCIAOsyh6T-18" value="" style="rounded=1;whiteSpace=wrap;html=1;fillColor=#ffe6cc;strokeColor=#d79b00;" vertex="1" parent="1">
          <mxGeometry x="460" y="155" width="190" height="150" as="geometry" />
        </mxCell>
        <mxCell id="ZTz_-8pqN7oCIAOsyh6T-17" value="" style="rounded=1;whiteSpace=wrap;html=1;fillColor=#fff2cc;strokeColor=#d6b656;" vertex="1" parent="1">
          <mxGeometry x="210" y="155" width="190" height="150" as="geometry" />
        </mxCell>
        <mxCell id="ZTz_-8pqN7oCIAOsyh6T-1" value="" style="shape=trapezoid;perimeter=trapezoidPerimeter;whiteSpace=wrap;html=1;fixedSize=1;rotation=90;size=40;fillColor=#f8cecc;strokeColor=#b85450;" vertex="1" parent="1">
          <mxGeometry x="200" y="190" width="120" height="80" as="geometry" />
        </mxCell>
        <mxCell id="ZTz_-8pqN7oCIAOsyh6T-7" value="" style="shape=trapezoid;perimeter=trapezoidPerimeter;whiteSpace=wrap;html=1;fixedSize=1;rotation=90;size=40;fillColor=#f8cecc;strokeColor=#b85450;" vertex="1" parent="1">
          <mxGeometry x="450" y="190" width="120" height="80" as="geometry" />
        </mxCell>
        <mxCell id="ZTz_-8pqN7oCIAOsyh6T-36" style="edgeStyle=orthogonalEdgeStyle;rounded=0;orthogonalLoop=1;jettySize=auto;html=1;entryX=0;entryY=0.5;entryDx=0;entryDy=0;fontSize=20;endArrow=classic;endFill=1;" edge="1" parent="1" source="ZTz_-8pqN7oCIAOsyh6T-8" target="ZTz_-8pqN7oCIAOsyh6T-34">
          <mxGeometry relative="1" as="geometry" />
        </mxCell>
        <mxCell id="ZTz_-8pqN7oCIAOsyh6T-8" value="" style="shape=trapezoid;perimeter=trapezoidPerimeter;whiteSpace=wrap;html=1;fixedSize=1;rotation=-90;size=40;fillColor=#d5e8d4;strokeColor=#82b366;" vertex="1" parent="1">
          <mxGeometry x="290" y="190" width="120" height="80" as="geometry" />
        </mxCell>
        <mxCell id="ZTz_-8pqN7oCIAOsyh6T-39" style="edgeStyle=orthogonalEdgeStyle;rounded=0;orthogonalLoop=1;jettySize=auto;html=1;fontSize=20;endArrow=classic;endFill=1;" edge="1" parent="1" source="ZTz_-8pqN7oCIAOsyh6T-9" target="ZTz_-8pqN7oCIAOsyh6T-33">
          <mxGeometry relative="1" as="geometry" />
        </mxCell>
        <mxCell id="ZTz_-8pqN7oCIAOsyh6T-9" value="" style="shape=trapezoid;perimeter=trapezoidPerimeter;whiteSpace=wrap;html=1;fixedSize=1;rotation=-90;size=40;fillColor=#d5e8d4;strokeColor=#82b366;" vertex="1" parent="1">
          <mxGeometry x="540" y="190" width="120" height="80" as="geometry" />
        </mxCell>
        <mxCell id="ZTz_-8pqN7oCIAOsyh6T-12" style="edgeStyle=orthogonalEdgeStyle;rounded=0;orthogonalLoop=1;jettySize=auto;html=1;entryX=0.5;entryY=1;entryDx=0;entryDy=0;" edge="1" parent="1" source="ZTz_-8pqN7oCIAOsyh6T-10" target="ZTz_-8pqN7oCIAOsyh6T-1">
          <mxGeometry relative="1" as="geometry">
            <Array as="points">
              <mxPoint x="200" y="210" />
              <mxPoint x="200" y="230" />
            </Array>
          </mxGeometry>
        </mxCell>
        <mxCell id="ZTz_-8pqN7oCIAOsyh6T-10" value="&lt;font style=&quot;font-size: 18px;&quot;&gt;RGB&lt;/font&gt;" style="shape=parallelogram;perimeter=parallelogramPerimeter;whiteSpace=wrap;html=1;fixedSize=1;size=9.999999999999886;" vertex="1" parent="1">
          <mxGeometry x="123" y="200" width="70" height="20" as="geometry" />
        </mxCell>
        <mxCell id="ZTz_-8pqN7oCIAOsyh6T-13" style="edgeStyle=orthogonalEdgeStyle;rounded=0;orthogonalLoop=1;jettySize=auto;html=1;entryX=0.5;entryY=1;entryDx=0;entryDy=0;" edge="1" parent="1" source="ZTz_-8pqN7oCIAOsyh6T-11" target="ZTz_-8pqN7oCIAOsyh6T-1">
          <mxGeometry relative="1" as="geometry">
            <Array as="points">
              <mxPoint x="200" y="250" />
              <mxPoint x="200" y="230" />
            </Array>
          </mxGeometry>
        </mxCell>
        <mxCell id="ZTz_-8pqN7oCIAOsyh6T-38" style="edgeStyle=orthogonalEdgeStyle;rounded=0;orthogonalLoop=1;jettySize=auto;html=1;entryX=0.5;entryY=1;entryDx=0;entryDy=0;fontSize=20;endArrow=classic;endFill=1;" edge="1" parent="1" source="ZTz_-8pqN7oCIAOsyh6T-11" target="ZTz_-8pqN7oCIAOsyh6T-34">
          <mxGeometry relative="1" as="geometry">
            <Array as="points">
              <mxPoint x="158" y="320" />
              <mxPoint x="432" y="320" />
            </Array>
          </mxGeometry>
        </mxCell>
        <mxCell id="ZTz_-8pqN7oCIAOsyh6T-11" value="&lt;font style=&quot;font-size: 18px;&quot;&gt;Depth&lt;/font&gt;" style="shape=parallelogram;perimeter=parallelogramPerimeter;whiteSpace=wrap;html=1;fixedSize=1;size=9.999999999999886;" vertex="1" parent="1">
          <mxGeometry x="123" y="240" width="70" height="20" as="geometry" />
        </mxCell>
        <mxCell id="ZTz_-8pqN7oCIAOsyh6T-21" value="&lt;b&gt;&lt;font style=&quot;font-size: 20px;&quot;&gt;Color&lt;/font&gt;&lt;/b&gt;" style="text;html=1;align=center;verticalAlign=middle;resizable=0;points=[];autosize=1;strokeColor=none;fillColor=none;" vertex="1" parent="1">
          <mxGeometry x="270" y="280" width="70" height="20" as="geometry" />
        </mxCell>
        <mxCell id="ZTz_-8pqN7oCIAOsyh6T-22" value="&lt;b&gt;&lt;font style=&quot;font-size: 20px;&quot;&gt;Depth&lt;/font&gt;&lt;/b&gt;" style="text;html=1;align=center;verticalAlign=middle;resizable=0;points=[];autosize=1;strokeColor=none;fillColor=none;" vertex="1" parent="1">
          <mxGeometry x="520" y="280" width="70" height="20" as="geometry" />
        </mxCell>
        <mxCell id="ZTz_-8pqN7oCIAOsyh6T-23" value="&lt;font style=&quot;font-size: 18px;&quot;&gt;E&lt;/font&gt;" style="text;html=1;align=center;verticalAlign=middle;resizable=0;points=[];autosize=1;strokeColor=none;fillColor=none;fontSize=20;" vertex="1" parent="1">
          <mxGeometry x="245" y="215" width="30" height="30" as="geometry" />
        </mxCell>
        <mxCell id="ZTz_-8pqN7oCIAOsyh6T-24" value="&lt;font style=&quot;font-size: 18px;&quot;&gt;D&lt;/font&gt;" style="text;html=1;align=center;verticalAlign=middle;resizable=0;points=[];autosize=1;strokeColor=none;fillColor=none;fontSize=20;" vertex="1" parent="1">
          <mxGeometry x="335" y="215" width="30" height="30" as="geometry" />
        </mxCell>
        <mxCell id="ZTz_-8pqN7oCIAOsyh6T-25" value="&lt;font style=&quot;font-size: 18px;&quot;&gt;E&lt;/font&gt;" style="text;html=1;align=center;verticalAlign=middle;resizable=0;points=[];autosize=1;strokeColor=none;fillColor=none;fontSize=20;" vertex="1" parent="1">
          <mxGeometry x="495" y="215" width="30" height="30" as="geometry" />
        </mxCell>
        <mxCell id="ZTz_-8pqN7oCIAOsyh6T-26" value="&lt;font style=&quot;font-size: 18px;&quot;&gt;D&lt;/font&gt;" style="text;html=1;align=center;verticalAlign=middle;resizable=0;points=[];autosize=1;strokeColor=none;fillColor=none;fontSize=20;" vertex="1" parent="1">
          <mxGeometry x="585" y="215" width="30" height="30" as="geometry" />
        </mxCell>
        <mxCell id="ZTz_-8pqN7oCIAOsyh6T-29" value="" style="endArrow=none;dashed=1;html=1;dashPattern=1 1;strokeWidth=2;rounded=0;fontSize=18;exitX=1;exitY=0;exitDx=0;exitDy=0;" edge="1" parent="1" source="ZTz_-8pqN7oCIAOsyh6T-8">
          <mxGeometry width="50" height="50" relative="1" as="geometry">
            <mxPoint x="340" y="110" as="sourcePoint" />
            <mxPoint x="530" y="200" as="targetPoint" />
            <Array as="points">
              <mxPoint x="330" y="130" />
              <mxPoint x="530" y="130" />
            </Array>
          </mxGeometry>
        </mxCell>
        <mxCell id="ZTz_-8pqN7oCIAOsyh6T-30" value="" style="endArrow=none;dashed=1;html=1;dashPattern=1 1;strokeWidth=2;rounded=0;fontSize=18;exitX=1;exitY=0.5;exitDx=0;exitDy=0;entryX=0;entryY=0.5;entryDx=0;entryDy=0;" edge="1" parent="1" source="ZTz_-8pqN7oCIAOsyh6T-8" target="ZTz_-8pqN7oCIAOsyh6T-7">
          <mxGeometry width="50" height="50" relative="1" as="geometry">
            <mxPoint x="340" y="210" as="sourcePoint" />
            <mxPoint x="540" y="210" as="targetPoint" />
            <Array as="points">
              <mxPoint x="350" y="150" />
              <mxPoint x="510" y="150" />
            </Array>
          </mxGeometry>
        </mxCell>
        <mxCell id="ZTz_-8pqN7oCIAOsyh6T-31" value="skip connections" style="text;html=1;align=center;verticalAlign=middle;resizable=0;points=[];autosize=1;strokeColor=none;fillColor=none;fontSize=18;" vertex="1" parent="1">
          <mxGeometry x="358" y="104" width="150" height="30" as="geometry" />
        </mxCell>
        <mxCell id="ZTz_-8pqN7oCIAOsyh6T-33" value="&lt;font style=&quot;font-size: 18px;&quot;&gt;Depth&#39;&lt;/font&gt;" style="shape=parallelogram;perimeter=parallelogramPerimeter;whiteSpace=wrap;html=1;fixedSize=1;size=9.999999999999886;" vertex="1" parent="1">
          <mxGeometry x="661" y="220" width="70" height="20" as="geometry" />
        </mxCell>
        <mxCell id="ZTz_-8pqN7oCIAOsyh6T-37" style="edgeStyle=orthogonalEdgeStyle;rounded=0;orthogonalLoop=1;jettySize=auto;html=1;entryX=0.5;entryY=1;entryDx=0;entryDy=0;fontSize=20;endArrow=classic;endFill=1;" edge="1" parent="1" source="ZTz_-8pqN7oCIAOsyh6T-34" target="ZTz_-8pqN7oCIAOsyh6T-7">
          <mxGeometry relative="1" as="geometry" />
        </mxCell>
        <mxCell id="ZTz_-8pqN7oCIAOsyh6T-34" value="&lt;font style=&quot;font-size: 20px;&quot;&gt;+&lt;/font&gt;" style="ellipse;whiteSpace=wrap;html=1;aspect=fixed;fontSize=18;" vertex="1" parent="1">
          <mxGeometry x="425" y="222.5" width="15" height="15" as="geometry" />
        </mxCell>
      </root>
    </mxGraphModel>
  </diagram>
</mxfile>
